# xmcd
#
# Track frame offsets:
#	300
#	18005
#	37201
#	43206
#	61496
#	76716
#	79691
#	103739
#	122372
#	142631
#	149463
#	172353
#	191686
#	207698
#
# Disc length: 2921 seconds
#
# Revision: 1
# Processed by: cddbd v1.5.1PL2 Copyright (c) Steve Scherf et al.
# Submitted via: audiograbber 1.80
#
DISCID=c70b650e
DTITLE=Prussian Blue - Fragment of the Future
DYEAR=1900
DGENRE=
TTITLE0=Road to Valhalla
TTITLE1=Victory Day
TTITLE2=Weiss Weiss Weiss
TTITLE3=Our Vinland
TTITLE4=Sacrifice
TTITLE5=Panzerlied
TTITLE6=the Snow Fell
TTITLE7=Gone with the Breeze
TTITLE8=Aryan Man Awake
TTITLE9=Skinhead Boy
TTITLE10=I will bleed for You
TTITLE11=Hate for Hate
TTITLE12=Victory
TTITLE13=Sisters
EXTD=
EXTT0=
EXTT1=
EXTT2=
EXTT3=
EXTT4=
EXTT5=
EXTT6=
EXTT7=
EXTT8=
EXTT9=
EXTT10=
EXTT11=
EXTT12=
EXTT13=
PLAYORDER=
